<?xml version="1.0" encoding="utf-8"?>
<!-- Generator: Adobe Illustrator 25.2.1, SVG Export Plug-In . SVG Version: 6.00 Build 0)  -->
<svg version="1.1" id="Layer_1" xmlns="http://www.w3.org/2000/svg" xmlns:xlink="http://www.w3.org/1999/xlink" x="0px" y="0px"
	 viewBox="0 0 164.66 198.46" style="enable-background:new 0 0 164.66 198.46;" xml:space="preserve">
<style type="text/css">
	.st0{fill:#FFFFFF;}
	.st1{fill:url(#SVGID_1_);}
</style>
<g>
	<g>
		<path class="st0" d="M31.74,133.07c-1.71,0.45,8.97,24.28,14.73,26.23c2.43,1.1,20.04,8.7,36.52,8.61
			c16.7,0.99,32.25-5.71,35.73-8.32c6.8-5.11,16.09-22.02,9.25-26.57C121.12,130.62,29.93,135.11,31.74,133.07z"/>
		<linearGradient id="SVGID_1_" gradientUnits="userSpaceOnUse" x1="82.3276" y1="144.2501" x2="82.3276" y2="4.6683">
			<stop  offset="0" style="stop-color:#6A6A6A"/>
			<stop  offset="1" style="stop-color:#000000"/>
		</linearGradient>
		<path class="st1" d="M42.33,59.37c-0.01,0-0.01,0.01-0.01,0.01c0.02,0.01,0.05,0.02,0.07,0.03
			C42.37,59.39,42.35,59.38,42.33,59.37z M122.93,143.46c0.99-1.5,1.76-3.03,2.47-4.54C124.19,141.14,123.26,142.54,122.93,143.46z
			 M147.91,64.93c-0.52-2.26-2.08-4.32-4.28-5.89c-2.19-1.56-5-2.45-7.87-2.73c-2.88-0.28-5.82-0.02-8.65,0.56
			c-1.15,0.24-2.29,0.53-3.41,0.88c1.95,2.08,3.66,4.28,5.12,6.55c1.7,2.62,3.08,5.34,4.13,8.09c0.49,1.27,0.9,2.56,1.25,3.84
			c0.53,1.98,0.95,3.95,1.2,5.94c0.11,0.7,0.17,1.41,0.22,2.12c0.54-0.3,1.06-0.63,1.58-0.97c2.23-1.49,4.25-3.29,5.93-5.25
			c1.72-1.94,3.11-4.07,4.02-6.29C148.03,69.55,148.43,67.2,147.91,64.93z M159.06,69.71c-2.53-24.26-19.17-42.82-35.01-52.88
			C107.9,6.39,92.55,4.43,85.66,4.69c-1.17,0.01-2.33,0.02-3.48,0.03c-1.14,0.02-2.29,0.02-3.45,0.04
			c-6.9-0.15-22.26,2.14-38.36,12.79C24.56,27.82,8,46.44,5.56,70.35c-2.09,27.96,3.88,42.62,8.14,51.86
			c4.69,9.05,7.67,12.67,9.42,14.44c1.59,1.58,8.68,4.53,17.86,7.6c-0.13-0.11-0.29-0.24-0.45-0.4c-0.1-0.1-0.18-0.17-0.29-0.3
			c-0.05-0.06-0.1-0.13-0.15-0.19s-0.05-0.07-0.08-0.11c-0.17-0.25-0.35-0.51-0.51-0.75c-0.14-0.24-0.29-0.48-0.44-0.71
			c-1.11-1.87-1.96-3.63-2.77-5.4c-1.61-3.55-2.89-7.06-3.98-10.62c-2.16-7.09-3.47-14.31-4.16-21.71
			c-0.33-3.7-0.51-7.46-0.56-11.26c-0.02-1.9,0-3.81,0.05-5.74c0-0.05,0-0.09,0.01-0.14c0.01-0.32,0.03-0.64,0.06-0.96
			c0.01-0.29,0.03-0.59,0.06-0.89c0.02-0.3,0.04-0.61,0.06-0.92c0.08-0.98,0.24-1.94,0.37-2.92c0.42-2.67,1.1-5.33,2.06-7.97
			c0.43-1.21,0.93-2.42,1.49-3.62c0.41-0.97,0.97-1.89,1.46-2.84c0.33-0.59,0.69-1.16,1.05-1.74c0.22-0.35,0.44-0.69,0.65-1.04
			c0.64-0.9,1.28-1.81,1.98-2.7c0.72-0.86,1.4-1.77,2.21-2.6c0.07-0.07,0.13-0.15,0.2-0.22c0.06-0.06,0.11-0.12,0.18-0.18
			c0.03-0.05,0.08-0.1,0.14-0.15c6.11-6.61,14.7-11.89,24.05-14.63c4.81-1.43,9.79-2.27,14.85-2.38c1.22-0.03,2.42-0.02,3.63-0.05
			c0.61-0.01,1.22-0.02,1.83-0.03c0.63-0.01,1.26,0,1.89,0.02c2.52,0.08,5.03,0.33,7.51,0.74c9.89,1.64,19.42,6.07,26.65,12.37
			c1.17,1.02,2.28,2.07,3.32,3.17c1.14-0.46,2.32-0.85,3.52-1.19c2.83-0.78,5.84-1.24,8.94-1.07c3.08,0.15,6.29,1.04,8.88,2.76
			c1.29,0.86,2.43,1.86,3.33,3.02c0.9,1.15,1.53,2.42,1.88,3.73c0.68,2.61,0.26,5.25-0.71,7.68c-1.01,2.43-2.51,4.71-4.37,6.8
			c-1.85,2.09-4.06,4-6.52,5.62c-0.82,0.53-1.67,1.03-2.56,1.47c0.01,0.14,0.02,0.29,0.03,0.43c0.01,0.49,0.03,0.98,0.04,1.47
			c0.09,3.88-0.02,7.74-0.28,11.54c-0.51,7.61-1.73,15.05-3.67,22.35c-1,3.65-2.12,7.26-3.55,10.87c-0.36,0.9-0.73,1.8-1.11,2.7
			c-0.4,0.9-0.78,1.8-1.22,2.7c-0.87,1.81-1.76,3.61-3.04,5.49c-0.05,0.07-0.1,0.13-0.15,0.19c10-3.14,17.83-6.28,19.49-7.94
			c1.78-1.79,4.52-5.21,9.03-14.17C155.38,112.71,161.23,98.04,159.06,69.71z M132.95,72.39c0.49,1.27,0.9,2.56,1.25,3.84
			c0.53,1.98,0.95,3.95,1.2,5.94c0.11,0.7,0.17,1.41,0.22,2.12c0.54-0.3,1.06-0.63,1.58-0.97c2.23-1.49,4.25-3.29,5.93-5.25
			c1.72-1.94,3.11-4.07,4.02-6.29c0.88-2.23,1.28-4.58,0.76-6.85c-0.52-2.26-2.08-4.32-4.28-5.89c-2.19-1.56-5-2.45-7.87-2.73
			c-2.88-0.28-5.82-0.02-8.65,0.56c-1.15,0.24-2.29,0.53-3.41,0.88c1.95,2.08,3.66,4.28,5.12,6.55
			C130.52,66.92,131.9,69.64,132.95,72.39z M125.4,138.92c-1.21,2.22-2.14,3.62-2.47,4.54C123.92,141.96,124.69,140.43,125.4,138.92
			z M42.32,59.38c0.02,0.01,0.05,0.02,0.07,0.03c-0.02-0.02-0.04-0.03-0.06-0.04C42.32,59.37,42.32,59.38,42.32,59.38z
			 M122.93,143.46c0.99-1.5,1.76-3.03,2.47-4.54C124.19,141.14,123.26,142.54,122.93,143.46z M42.32,59.38
			c0.02,0.01,0.05,0.02,0.07,0.03c-0.02-0.02-0.04-0.03-0.06-0.04C42.32,59.37,42.32,59.38,42.32,59.38z M147.91,64.93
			c-0.52-2.26-2.08-4.32-4.28-5.89c-2.19-1.56-5-2.45-7.87-2.73c-2.88-0.28-5.82-0.02-8.65,0.56c-1.15,0.24-2.29,0.53-3.41,0.88
			c1.95,2.08,3.66,4.28,5.12,6.55c1.7,2.62,3.08,5.34,4.13,8.09c0.49,1.27,0.9,2.56,1.25,3.84c0.53,1.98,0.95,3.95,1.2,5.94
			c0.11,0.7,0.17,1.41,0.22,2.12c0.54-0.3,1.06-0.63,1.58-0.97c2.23-1.49,4.25-3.29,5.93-5.25c1.72-1.94,3.11-4.07,4.02-6.29
			C148.03,69.55,148.43,67.2,147.91,64.93z"/>
		<path d="M117.36,163.15c-1.8,2.05-18.93,6.22-32.26,5.37c-1.03,0.03-2.06,0.03-3.1,0.02c-0.91-0.01-1.82-0.03-2.73-0.06
			c-13.32,0.63-30.47-3.92-32.27-5.99c-3.01-1.71-17.68-17.92-19.21-20.73c-1.94-2.75,14.67,5.09,14.37,5.11
			c16.43,8.98,32.65,12.05,40.1,11.93c0.04,0,0.08,0,0.11,0c7.57,0.16,23.62-2.74,39.95-11.57c-0.3-0.02,16.37-7.82,14.41-5.04
			C135.21,145.03,120.39,161.47,117.36,163.15z"/>
		<path class="st0" d="M42.32,59.38c-0.04,0.04-0.07,0.07-0.11,0.11c-0.28,0.29-0.56,0.58-0.84,0.87c-1.73,1.8-3.27,3.71-4.62,5.68
			c-1.78,2.6-3.23,5.32-4.35,8.1c-1.01,2.47-1.76,4.98-2.27,7.51c-0.17,0.95-0.37,1.88-0.49,2.83c-0.05,0.46-0.1,0.93-0.14,1.39
			c-0.03,0.27-0.06,0.55-0.09,0.82c-0.28-0.1-0.56-0.22-0.84-0.33c-0.28-0.13-0.57-0.26-0.86-0.4c0.01-0.29,0.03-0.59,0.06-0.89
			c-0.77-0.38-1.52-0.82-2.25-1.28c-2.23-1.46-4.26-3.2-5.96-5.11c-1.73-1.89-3.14-3.97-4.07-6.14c-0.89-2.18-1.32-4.48-0.82-6.71
			c0.5-2.23,2.04-4.28,4.23-5.86c2.18-1.58,4.99-2.5,7.85-2.83c2.88-0.33,5.82-0.12,8.65,0.42c1.32,0.25,2.62,0.56,3.9,0.94
			c0.06-0.06,0.11-0.12,0.18-0.18c0.51,0.16,0.98,0.33,1.41,0.49C41.44,59.01,41.92,59.21,42.32,59.38z"/>
		<path d="M42.33,59.37c-0.45-0.23-0.91-0.44-1.37-0.64c-0.44-0.2-0.89-0.39-1.34-0.56c-0.06,0.05-0.11,0.1-0.14,0.15
			c-0.07,0.06-0.12,0.12-0.18,0.18c0.49,0.14,0.97,0.29,1.45,0.45c0.49,0.17,0.98,0.35,1.46,0.54c0.04-0.04,0.07-0.07,0.11-0.11
			c0.02,0.01,0.05,0.02,0.07,0.03C42.37,59.39,42.35,59.38,42.33,59.37z M28.65,85.5c-0.3-0.13-0.59-0.27-0.88-0.43
			c-0.03,0.3-0.05,0.6-0.06,0.89c-0.03,0.32-0.05,0.64-0.06,0.96c0.27,0.13,0.55,0.25,0.83,0.36c0.28,0.12,0.56,0.23,0.85,0.33
			c0.01-0.09,0.01-0.19,0.02-0.28c0.02-0.21,0.04-0.43,0.06-0.64c0.03-0.27,0.06-0.55,0.09-0.82C29.21,85.76,28.93,85.64,28.65,85.5
			z"/>
		<path d="M39.62,58.17c-0.06,0.05-0.11,0.1-0.14,0.15c-0.07,0.06-0.12,0.12-0.18,0.18c-1.28-0.38-2.58-0.69-3.9-0.94
			c-2.83-0.54-5.77-0.75-8.65-0.42c-2.86,0.33-5.67,1.25-7.85,2.83c-2.19,1.58-3.73,3.63-4.23,5.86c-0.5,2.23-0.07,4.53,0.82,6.71
			c0.93,2.17,2.34,4.25,4.07,6.14c1.7,1.91,3.73,3.65,5.96,5.11c0.73,0.46,1.48,0.9,2.25,1.28c-0.03,0.3-0.05,0.6-0.06,0.89
			c-0.03,0.32-0.05,0.64-0.06,0.96c-1.12-0.5-2.19-1.1-3.21-1.74c-2.47-1.57-4.69-3.43-6.56-5.46c-1.87-2.04-3.4-4.26-4.42-6.63
			c-0.99-2.37-1.43-4.95-0.78-7.53c0.34-1.28,0.96-2.55,1.85-3.69c0.89-1.15,2.02-2.16,3.3-3.02c2.58-1.74,5.79-2.67,8.86-2.87
			c3.09-0.23,6.1,0.17,8.94,0.9C37,57.23,38.33,57.66,39.62,58.17z"/>
		<path class="st0" d="M147.15,71.78c-0.91,2.22-2.3,4.35-4.02,6.29c-1.68,1.96-3.7,3.76-5.93,5.25c-0.52,0.34-1.04,0.67-1.58,0.97
			c-0.05-0.71-0.11-1.42-0.22-2.12c-0.25-1.99-0.67-3.96-1.2-5.94c-0.35-1.28-0.76-2.57-1.25-3.84c-1.05-2.75-2.43-5.47-4.13-8.09
			c-1.46-2.27-3.17-4.47-5.12-6.55c1.12-0.35,2.26-0.64,3.41-0.88c2.83-0.58,5.77-0.84,8.65-0.56c2.87,0.28,5.68,1.17,7.87,2.73
			c2.2,1.57,3.76,3.63,4.28,5.89C148.43,67.2,148.03,69.55,147.15,71.78z"/>
		<path d="M149.19,72.31c-1.01,2.43-2.51,4.71-4.37,6.8c-1.85,2.09-4.06,4-6.52,5.62c-0.82,0.53-1.67,1.03-2.56,1.47
			c-0.02-0.33-0.04-0.66-0.06-0.98v-0.07c-0.02-0.29-0.04-0.58-0.06-0.86c0.54-0.3,1.06-0.63,1.58-0.97
			c2.23-1.49,4.25-3.29,5.93-5.25c1.72-1.94,3.11-4.07,4.02-6.29c0.88-2.23,1.28-4.58,0.76-6.85c-0.52-2.26-2.08-4.32-4.28-5.89
			c-2.19-1.56-5-2.45-7.87-2.73c-2.88-0.28-5.82-0.02-8.65,0.56c-1.15,0.24-2.29,0.53-3.41,0.88c-0.06-0.07-0.12-0.14-0.19-0.2
			c-0.05-0.06-0.1-0.12-0.16-0.17c1.14-0.46,2.32-0.85,3.52-1.19c2.83-0.78,5.84-1.24,8.94-1.07c3.08,0.15,6.29,1.04,8.88,2.76
			c1.29,0.86,2.43,1.86,3.33,3.02c0.9,1.15,1.53,2.42,1.88,3.73C150.58,67.24,150.16,69.88,149.19,72.31z"/>
		<path d="M36.75,66.04c-1.78,2.6-3.23,5.32-4.35,8.1c-0.28-0.07-0.63-0.19-1.03-0.36c-0.34-0.14-0.72-0.32-1.11-0.52
			c-2.78-1.41-6.42-4.17-5.27-6.52c1.24-2.52,5.69-2.69,9.27-1.68c0.44,0.12,0.88,0.27,1.29,0.43
			C35.98,65.65,36.38,65.84,36.75,66.04z"/>
		<path d="M132.95,72.39c-1.05-2.75-2.43-5.47-4.13-8.09c3.47-0.9,7.57-0.69,8.77,1.72C138.68,68.23,135.61,70.85,132.95,72.39z"/>
		<path class="st0" d="M58.08,88.32c0.19,1.81-2.02,3.33-4.95,3.43c-2.93,0.1-5.55-1.24-5.83-3.01c-0.29-1.77,1.94-3.34,4.97-3.48
			C55.3,85.13,57.9,86.51,58.08,88.32z"/>
		<path class="st0" d="M92.08,126.88c-0.6,5.59-5.32,10.13-10.48,10.12c-5.16-0.03-9.93-4.6-10.59-10.16
			c-0.65-5.57,4.07-10.15,10.48-10.15C87.9,116.7,92.67,121.29,92.08,126.88z"/>
		<path class="st0" d="M102.8,122.02c-0.53,3.15-1.41,6.33-2.75,9.37c-1.33,3.04-3.15,5.93-5.25,8.13c-2.1,2.21-4.38,3.67-6.59,4.53
			c-2.21,0.85-4.4,1.15-6.56,1.16c-2.17-0.03-4.35-0.35-6.58-1.23c-2.22-0.88-4.51-2.35-6.64-4.57c-2.12-2.21-3.97-5.09-5.33-8.12
			c-1.38-3.03-2.29-6.19-2.85-9.32c-1.12-6.28-0.9-12.47,0.13-18.56c0.53-3.04,1.27-6.06,2.2-9.06s2.05-5.98,3.41-8.89
			c-2.28,6.02-3.89,12.1-4.7,18.2c-0.83,6.09-0.88,12.24,0.24,18.31c0.58,3.02,1.47,6.03,2.73,8.83c1.26,2.8,2.94,5.37,4.86,7.33
			c1.92,1.96,4.03,3.31,6.14,4.1c2.12,0.81,4.25,1.1,6.38,1.12c2.13,0,4.25-0.27,6.36-1.05c2.11-0.78,4.2-2.12,6.11-4.07
			c1.89-1.95,3.54-4.52,4.77-7.33c1.24-2.82,2.09-5.84,2.64-8.88c1.06-6.1,0.95-12.29,0.06-18.41c-0.87-6.14-2.54-12.24-4.87-18.26
			c1.39,2.91,2.53,5.9,3.48,8.91c0.96,3.01,1.73,6.04,2.29,9.09C103.57,109.47,103.85,115.7,102.8,122.02z"/>
		<path class="st0" d="M115.45,88.51c-0.28,1.79-2.89,3.16-5.82,3.08c-2.93-0.08-5.16-1.6-4.99-3.42c0.18-1.82,2.77-3.24,5.8-3.12
			C113.47,85.16,115.72,86.72,115.45,88.51z"/>
		<path d="M42.39,59.41c-0.02-0.01-0.05-0.02-0.07-0.03c0,0,0-0.01,0.01-0.01C42.35,59.38,42.37,59.39,42.39,59.41z"/>
		<path d="M122.46,144.04c-0.11,0.1-0.22,0.19-0.34,0.27c-0.16,0.12-0.33,0.23-0.48,0.33c-0.41,0.25-0.82,0.47-1.21,0.68
			c-0.8,0.41-1.57,0.76-2.33,1.09c-1.51,0.65-2.98,1.22-4.4,1.72c-2.84,0.97-5.55,1.79-8.18,2.42c-2.63,0.65-5.19,1.16-7.7,1.54
			s-4.99,0.66-7.44,0.82c-9.82,0.61-19.38-0.32-29.82-2.76c-2.61-0.61-5.27-1.29-8.03-2.15c-2.77-0.87-5.62-1.82-8.66-3.18
			c-0.18-0.08-0.36-0.16-0.54-0.25c0.06,0.17,0.13,0.34,0.19,0.51c-0.86-0.28-1.71-0.56-2.54-0.83c0.01,0.01,0.02,0.01,0.03,0.02
			c0.29,0.24,0.54,0.41,0.78,0.57c0.95,0.61,1.77,1.03,2.58,1.44c3.2,1.57,6.06,2.68,8.84,3.71c2.77,1.01,5.43,1.89,8,2.62
			c10.27,2.88,19.31,3.7,28.97,2.21c4.83-0.7,9.82-1.91,15.13-3.51c2.66-0.83,5.39-1.7,8.26-2.8c1.43-0.55,2.89-1.11,4.42-1.78
			c0.77-0.35,1.55-0.7,2.36-1.13c0.4-0.22,0.82-0.45,1.25-0.72c0.21-0.13,0.43-0.29,0.66-0.46c0.17-0.13,0.35-0.28,0.53-0.48
			C122.68,143.97,122.57,144,122.46,144.04z"/>
		<path d="M135.53,99.64c-0.51,7.61-1.73,15.05-3.67,22.35c-1,3.65-2.12,7.26-3.55,10.87c-0.36,0.9-0.73,1.8-1.11,2.7
			c-0.4,0.9-0.78,1.8-1.22,2.7c-0.87,1.81-1.76,3.61-3.04,5.49c-0.05,0.07-0.1,0.13-0.15,0.19c-0.11,0.03-0.22,0.06-0.33,0.1
			c0.12-0.1,0.22-0.21,0.31-0.32c0.05-0.08,0.11-0.16,0.15-0.24c0-0.01,0.01-0.01,0.01-0.02c0.99-1.5,1.76-3.03,2.47-4.54
			c0.02-0.03,0.03-0.05,0.05-0.08c0.01-0.02,0.02-0.04,0.03-0.06c0.06-0.15,0.13-0.3,0.2-0.45c0.83-1.8,1.57-3.59,2.23-5.38
			c1.31-3.57,2.36-7.16,3.15-10.78c1.6-7.23,2.26-14.57,2.28-22.12c-0.01-3.77-0.17-7.59-0.46-11.46c-0.03-0.38-0.06-0.76-0.1-1.14
			c-0.02-0.3-0.05-0.59-0.09-0.89v-0.01c-0.02-0.28-0.05-0.55-0.09-0.82c-0.34-2.88-0.89-5.72-1.76-8.54
			c-0.37-1.18-0.78-2.36-1.26-3.52c-1.02-2.52-2.29-4.98-3.84-7.35c-0.13-0.19-0.25-0.38-0.39-0.57c-1.58-2.33-3.41-4.57-5.5-6.64
			c-0.02-0.02-0.04-0.05-0.08-0.07c0,0,0,0,0-0.01c-0.79-0.78-1.61-1.53-2.48-2.25c-1.67-1.44-3.49-2.74-5.37-3.98
			c-1.91-1.2-3.91-2.29-5.99-3.26c-4.17-1.91-8.65-3.3-13.24-4.12c-2.3-0.41-4.63-0.66-6.96-0.77c-0.58-0.02-1.17-0.04-1.75-0.03
			h-1.81c-1.22,0.01-2.45,0-3.65,0.01c-4.65,0.04-9.36,0.74-13.86,2.01c-2.26,0.64-4.46,1.42-6.6,2.32
			c-2.15,0.91-4.2,1.97-6.18,3.12c-1.99,1.14-3.84,2.46-5.62,3.82c-0.85,0.72-1.75,1.4-2.54,2.16c-0.4,0.38-0.81,0.75-1.21,1.12
			c-0.06,0.06-0.12,0.13-0.18,0.19c-0.01,0-0.01,0.01-0.01,0.01c-0.04,0.04-0.07,0.07-0.11,0.11c-0.28,0.29-0.56,0.58-0.84,0.87
			c-1.73,1.8-3.27,3.71-4.62,5.68c-1.78,2.6-3.23,5.32-4.35,8.1c-1.01,2.47-1.76,4.98-2.27,7.51c-0.17,0.95-0.37,1.88-0.49,2.83
			c-0.05,0.46-0.1,0.93-0.14,1.39c-0.03,0.27-0.06,0.55-0.09,0.82c-0.02,0.21-0.04,0.43-0.06,0.64c-0.01,0.09-0.01,0.19-0.02,0.28
			c-0.12,1.83-0.21,3.63-0.27,5.44c-0.12,3.78-0.06,7.52,0.2,11.22c0.51,7.39,1.79,14.61,3.97,21.73c1.12,3.56,2.45,7.1,4.09,10.63
			c0.84,1.76,1.73,3.54,2.78,5.28c0.13,0.21,0.27,0.42,0.4,0.63c0.14,0.21,0.28,0.4,0.41,0.6c0,0.02,0.34,0.3,0.68,0.51
			c0.19,0.12,0.39,0.23,0.59,0.33c0.16,0.1,0.32,0.18,0.48,0.26c0.22,0.12,0.45,0.23,0.67,0.33c0.06,0.17,0.13,0.34,0.19,0.51
			c-0.86-0.28-1.71-0.56-2.54-0.83c-0.13-0.11-0.29-0.24-0.45-0.4c-0.1-0.1-0.18-0.17-0.29-0.3c-0.05-0.06-0.1-0.13-0.15-0.19
			s-0.05-0.07-0.08-0.11c-0.17-0.25-0.35-0.51-0.51-0.75c-0.14-0.24-0.29-0.48-0.44-0.71c-1.11-1.87-1.96-3.63-2.77-5.4
			c-1.61-3.55-2.89-7.06-3.98-10.62c-2.16-7.09-3.47-14.31-4.16-21.71c-0.33-3.7-0.51-7.46-0.56-11.26c-0.02-1.9,0-3.81,0.05-5.74
			c0-0.05,0-0.09,0.01-0.14c0.01-0.32,0.03-0.64,0.06-0.96c0.01-0.29,0.03-0.59,0.06-0.89c0.02-0.3,0.04-0.61,0.06-0.92
			c0.08-0.98,0.24-1.94,0.37-2.92c0.42-2.67,1.1-5.33,2.06-7.97c0.43-1.21,0.93-2.42,1.49-3.62c0.41-0.97,0.97-1.89,1.46-2.84
			c0.33-0.59,0.69-1.16,1.05-1.74c0.22-0.35,0.44-0.69,0.65-1.04c0.64-0.9,1.28-1.81,1.98-2.7c0.72-0.86,1.4-1.77,2.21-2.6
			c0.07-0.07,0.13-0.15,0.2-0.22c0.06-0.06,0.11-0.12,0.18-0.18c0.03-0.05,0.08-0.1,0.14-0.15c6.11-6.61,14.7-11.89,24.05-14.63
			c4.81-1.43,9.79-2.27,14.85-2.38c1.22-0.03,2.42-0.02,3.63-0.05c0.61-0.01,1.22-0.02,1.83-0.03c0.63-0.01,1.26,0,1.89,0.02
			c2.52,0.08,5.03,0.33,7.51,0.74c9.89,1.64,19.42,6.07,26.65,12.37c1.17,1.02,2.28,2.07,3.32,3.17c0.06,0.05,0.11,0.11,0.16,0.17
			c0.07,0.06,0.13,0.13,0.19,0.2c1.95,2.08,3.66,4.28,5.12,6.55c1.7,2.62,3.08,5.34,4.13,8.09c0.49,1.27,0.9,2.56,1.25,3.84
			c0.53,1.98,0.95,3.95,1.2,5.94c0.11,0.7,0.17,1.41,0.22,2.12c0.02,0.28,0.04,0.57,0.06,0.86v0.07c0.02,0.32,0.04,0.65,0.06,0.98
			c0.01,0.14,0.02,0.29,0.03,0.43c0.01,0.49,0.03,0.98,0.04,1.47C135.9,91.98,135.79,95.84,135.53,99.64z"/>
		<path class="st0" d="M132.88,88.59c-0.03-0.38-0.06-0.76-0.1-1.14c-0.02-0.3-0.05-0.59-0.09-0.89v-0.01
			c-0.02-0.28-0.05-0.55-0.09-0.82c-0.34-2.88-0.89-5.72-1.76-8.54c-0.37-1.18-0.78-2.36-1.26-3.52c-1.02-2.52-2.29-4.98-3.84-7.35
			c-0.13-0.19-0.25-0.38-0.39-0.57c-1.58-2.33-3.41-4.57-5.5-6.64c-0.02-0.02-0.04-0.05-0.08-0.07c0,0,0,0,0-0.01
			c-0.79-0.78-1.61-1.53-2.48-2.25c-1.67-1.44-3.49-2.74-5.37-3.98c-1.91-1.2-3.91-2.29-5.99-3.26c-4.17-1.91-8.65-3.3-13.24-4.12
			c-2.3-0.41-4.63-0.66-6.96-0.77c-0.58-0.02-1.17-0.04-1.75-0.03h-1.81c-1.22,0.01-2.45,0-3.65,0.01
			c-4.65,0.04-9.36,0.74-13.86,2.01c-2.26,0.64-4.46,1.42-6.6,2.32c-2.15,0.91-4.2,1.97-6.18,3.12c-1.99,1.14-3.84,2.46-5.62,3.82
			c-0.85,0.72-1.75,1.4-2.54,2.16c-0.4,0.38-0.81,0.75-1.21,1.12c-0.06,0.06-0.12,0.13-0.18,0.19c0.02,0.01,0.04,0.02,0.06,0.04
			c-0.02-0.01-0.05-0.02-0.07-0.03c-0.04,0.04-0.07,0.07-0.11,0.11c-0.28,0.29-0.56,0.58-0.84,0.87c-1.73,1.8-3.27,3.71-4.62,5.68
			c-1.78,2.6-3.23,5.32-4.35,8.1c-1.01,2.47-1.76,4.98-2.27,7.51c-0.17,0.95-0.37,1.88-0.49,2.83c-0.05,0.46-0.1,0.93-0.14,1.39
			c-0.03,0.27-0.06,0.55-0.09,0.82c-0.02,0.21-0.04,0.43-0.06,0.64c-0.01,0.09-0.01,0.19-0.02,0.28c-0.12,1.83-0.21,3.63-0.27,5.44
			c-0.12,3.78-0.06,7.52,0.2,11.22c0.51,7.39,1.79,14.61,3.97,21.73c1.12,3.56,2.45,7.1,4.09,10.63c0.84,1.76,1.73,3.54,2.78,5.28
			c0.13,0.21,0.27,0.42,0.4,0.63c0.14,0.21,0.28,0.4,0.41,0.6c0,0.02,0.34,0.3,0.68,0.51c0.19,0.12,0.39,0.23,0.59,0.33
			c0.16,0.1,0.32,0.18,0.48,0.26c0.22,0.12,0.45,0.23,0.67,0.33c0.18,0.09,0.36,0.17,0.54,0.25c3.04,1.36,5.89,2.31,8.66,3.18
			c2.76,0.86,5.42,1.54,8.03,2.15c10.44,2.44,20,3.37,29.82,2.76c2.45-0.16,4.93-0.44,7.44-0.82s5.07-0.89,7.7-1.54
			c2.63-0.63,5.34-1.45,8.18-2.42c1.42-0.5,2.89-1.07,4.4-1.72c0.76-0.33,1.53-0.68,2.33-1.09c0.39-0.21,0.8-0.43,1.21-0.68
			c0.15-0.1,0.32-0.21,0.48-0.33c0.12-0.08,0.23-0.17,0.34-0.27c0.12-0.1,0.22-0.21,0.31-0.32c0.05-0.08,0.11-0.16,0.15-0.24
			c0-0.01,0.01-0.01,0.01-0.02c0.33-0.92,1.26-2.32,2.47-4.54c0.02-0.03,0.03-0.05,0.05-0.08c0.01-0.02,0.02-0.04,0.03-0.06
			c0.06-0.15,0.13-0.3,0.2-0.45c0.83-1.8,1.57-3.59,2.23-5.38c1.31-3.57,2.36-7.16,3.15-10.78c1.6-7.23,2.26-14.57,2.28-22.12
			C133.33,96.28,133.17,92.46,132.88,88.59z M81.49,116.69c6.41,0.01,11.18,4.6,10.59,10.19c-0.6,5.59-5.32,10.13-10.48,10.12
			c-5.16-0.03-9.93-4.6-10.59-10.16C70.36,121.27,75.08,116.69,81.49,116.69z M53.13,91.75c-2.93,0.1-5.55-1.24-5.83-3.01
			c-0.29-1.77,1.94-3.34,4.97-3.48c3.03-0.13,5.63,1.25,5.81,3.06C58.27,90.13,56.06,91.65,53.13,91.75z M102.8,122.02
			c-0.53,3.15-1.41,6.33-2.75,9.37c-1.33,3.04-3.15,5.93-5.25,8.13c-2.1,2.21-4.38,3.67-6.59,4.53c-2.21,0.85-4.4,1.15-6.56,1.16
			c-2.17-0.03-4.35-0.35-6.58-1.23c-2.22-0.88-4.51-2.35-6.64-4.57c-2.12-2.21-3.97-5.09-5.33-8.12c-1.38-3.03-2.29-6.19-2.85-9.32
			c-1.12-6.28-0.9-12.47,0.13-18.56c0.53-3.04,1.27-6.06,2.2-9.06s2.05-5.98,3.41-8.89c-2.28,6.02-3.89,12.1-4.7,18.2
			c-0.83,6.09-0.88,12.24,0.24,18.31c0.58,3.02,1.47,6.03,2.73,8.83c1.26,2.8,2.94,5.37,4.86,7.33c1.92,1.96,4.03,3.31,6.14,4.1
			c2.12,0.81,4.25,1.1,6.38,1.12c2.13,0,4.25-0.27,6.36-1.05c2.11-0.78,4.2-2.12,6.11-4.07c1.89-1.95,3.54-4.52,4.77-7.33
			c1.24-2.82,2.09-5.84,2.64-8.88c1.06-6.1,0.95-12.29,0.06-18.41c-0.87-6.14-2.54-12.24-4.87-18.26c1.39,2.91,2.53,5.9,3.48,8.91
			c0.96,3.01,1.73,6.04,2.29,9.09C103.57,109.47,103.85,115.7,102.8,122.02z M115.45,88.51c-0.28,1.79-2.89,3.16-5.82,3.08
			c-2.93-0.08-5.16-1.6-4.99-3.42c0.18-1.82,2.77-3.24,5.8-3.12C113.47,85.16,115.72,86.72,115.45,88.51z"/>
		<path d="M115.45,88.51c-0.28,1.79-2.89,3.16-5.82,3.08c-2.93-0.08-5.16-1.6-4.99-3.42c0.18-1.82,2.77-3.24,5.8-3.12
			C113.47,85.16,115.72,86.72,115.45,88.51z"/>
		<path d="M102.8,122.02c-0.53,3.15-1.41,6.33-2.75,9.37c-1.33,3.04-3.15,5.93-5.25,8.13c-2.1,2.21-4.38,3.67-6.59,4.53
			c-2.21,0.85-4.4,1.15-6.56,1.16c-2.17-0.03-4.35-0.35-6.58-1.23c-2.22-0.88-4.51-2.35-6.64-4.57c-2.12-2.21-3.97-5.09-5.33-8.12
			c-1.38-3.03-2.29-6.19-2.85-9.32c-1.12-6.28-0.9-12.47,0.13-18.56c0.53-3.04,1.27-6.06,2.2-9.06s2.05-5.98,3.41-8.89
			c-2.28,6.02-3.89,12.1-4.7,18.2c-0.83,6.09-0.88,12.24,0.24,18.31c0.58,3.02,1.47,6.03,2.73,8.83c1.26,2.8,2.94,5.37,4.86,7.33
			c1.92,1.96,4.03,3.31,6.14,4.1c1.79,0.68,3.58,1,5.38,1.09v0.04l1-0.01c-0.33,0-0.67-0.01-1-0.03l-0.04-6.39
			c-4.76-0.56-8.97-4.89-9.59-10.09c-0.65-5.57,4.07-10.15,10.48-10.15c6.41,0.01,11.18,4.6,10.59,10.19
			c-0.56,5.22-4.73,9.54-9.48,10.07l0.04,6.38c1.79-0.08,3.58-0.37,5.36-1.03c2.11-0.78,4.2-2.12,6.11-4.07
			c1.89-1.95,3.54-4.52,4.77-7.33c1.24-2.82,2.09-5.84,2.64-8.88c1.06-6.1,0.95-12.29,0.06-18.41c-0.87-6.14-2.54-12.24-4.87-18.26
			c1.39,2.91,2.53,5.9,3.48,8.91c0.96,3.01,1.73,6.04,2.29,9.09C103.57,109.47,103.85,115.7,102.8,122.02z"/>
		<path d="M58.08,88.32c0.19,1.81-2.02,3.33-4.95,3.43c-2.93,0.1-5.55-1.24-5.83-3.01c-0.29-1.77,1.94-3.34,4.97-3.48
			C55.3,85.13,57.9,86.51,58.08,88.32z"/>
		<path d="M81.64,143.35l-1,0.01v-0.04C80.97,143.34,81.31,143.35,81.64,143.35z"/>
		<g>
			<path d="M81.64,143.35l-1,0.01v-0.04C80.97,143.34,81.31,143.35,81.64,143.35z"/>
		</g>
	</g>
	<g>
		<path class="st0" d="M27.1,191.65v0.9c0,1.13-0.4,2.1-1.2,2.91c-0.8,0.81-1.77,1.21-2.9,1.21h-6.27v-16.22H23
			c1.13,0,2.1,0.4,2.9,1.21s1.2,1.78,1.2,2.92v0.87c0,1.21-0.47,2.25-1.4,3.1C26.63,189.43,27.1,190.46,27.1,191.65z M25,185.43
			v-0.84c0-0.57-0.2-1.06-0.6-1.46c-0.4-0.41-0.88-0.61-1.45-0.61h-4.17v4.97h4.17c0.55,0,1.03-0.2,1.44-0.6
			C24.8,186.47,25,185.99,25,185.43z M25,192.56v-0.85c0-0.57-0.2-1.06-0.6-1.46c-0.4-0.41-0.88-0.61-1.45-0.61H18.8v4.98h4.15
			c0.55,0,1.03-0.2,1.44-0.6C24.8,193.6,25,193.12,25,192.56z"/>
		<path class="st0" d="M32.88,180.46h8.3c0.27,0,0.51,0.1,0.71,0.31c0.21,0.2,0.31,0.44,0.31,0.72c0,0.29-0.1,0.53-0.3,0.74
			c-0.2,0.21-0.44,0.31-0.72,0.31h-3.1v12.1h3.1c0.29,0,0.53,0.1,0.73,0.3c0.2,0.2,0.3,0.44,0.3,0.73c0,0.29-0.1,0.53-0.3,0.73
			c-0.2,0.2-0.44,0.3-0.72,0.3h-8.3c-0.28,0-0.53-0.1-0.73-0.3c-0.2-0.2-0.3-0.44-0.3-0.73c0-0.28,0.1-0.53,0.3-0.73
			c0.2-0.2,0.44-0.3,0.73-0.3h3.15v-12.1h-3.15c-0.28,0-0.53-0.1-0.73-0.31c-0.2-0.2-0.3-0.44-0.3-0.72c0-0.29,0.1-0.54,0.3-0.74
			C32.35,180.56,32.59,180.46,32.88,180.46z"/>
		<path class="st0" d="M46.98,196.68v-15.2c0-0.28,0.1-0.52,0.3-0.72c0.2-0.2,0.44-0.31,0.72-0.31c0.28,0,0.52,0.1,0.72,0.31
			c0.2,0.2,0.31,0.44,0.31,0.72v13.15h7.25c0.29,0,0.53,0.1,0.74,0.3c0.21,0.2,0.31,0.44,0.31,0.73c0,0.29-0.1,0.53-0.31,0.73
			c-0.21,0.2-0.45,0.3-0.74,0.3H46.98z"/>
		<path class="st0" d="M68.3,188.9v6.76c0,0.29-0.1,0.53-0.3,0.73s-0.44,0.3-0.72,0.3c-0.29,0-0.54-0.1-0.74-0.3
			c-0.2-0.2-0.3-0.44-0.3-0.73v-6.75l-4.13-5.22v-2.17c0-0.29,0.1-0.54,0.3-0.74c0.2-0.2,0.44-0.31,0.73-0.31
			c0.29,0,0.53,0.1,0.74,0.31c0.21,0.21,0.31,0.46,0.31,0.74v1.41l3.08,3.95l3.12-3.95v-1.43c0-0.28,0.1-0.53,0.3-0.74
			c0.2-0.21,0.44-0.31,0.72-0.31c0.27,0,0.51,0.1,0.71,0.29c0.21,0.19,0.31,0.45,0.31,0.76v2.15L68.3,188.9z"/>
		<path class="st0" d="M102.6,191.65v0.9c0,1.13-0.4,2.1-1.2,2.91c-0.8,0.81-1.77,1.21-2.9,1.21h-6.27v-16.22h6.27
			c1.13,0,2.1,0.4,2.9,1.21s1.2,1.78,1.2,2.92v0.87c0,1.21-0.47,2.25-1.4,3.1C102.14,189.43,102.6,190.46,102.6,191.65z
			 M100.5,185.43v-0.84c0-0.57-0.2-1.06-0.6-1.46c-0.4-0.41-0.88-0.61-1.45-0.61h-4.17v4.97h4.17c0.55,0,1.03-0.2,1.44-0.6
			C100.3,186.47,100.5,185.99,100.5,185.43z M100.5,192.56v-0.85c0-0.57-0.2-1.06-0.6-1.46c-0.4-0.41-0.88-0.61-1.45-0.61H94.3v4.98
			h4.15c0.55,0,1.03-0.2,1.44-0.6C100.3,193.6,100.5,193.12,100.5,192.56z"/>
		<path class="st0" d="M116.68,182.54h-7.25v4.99h3.12c0.28,0,0.52,0.1,0.72,0.31c0.2,0.2,0.31,0.44,0.31,0.72
			c0,0.29-0.1,0.54-0.3,0.74c-0.2,0.2-0.44,0.31-0.73,0.31h-3.12v5.03h7.28c0.28,0,0.52,0.1,0.72,0.3c0.2,0.2,0.31,0.44,0.31,0.73
			c0,0.29-0.1,0.53-0.31,0.73c-0.21,0.2-0.45,0.3-0.74,0.3h-9.3v-16.22h9.3c0.29,0,0.53,0.1,0.74,0.31
			c0.21,0.21,0.31,0.45,0.31,0.74c0,0.28-0.1,0.52-0.31,0.72C117.21,182.43,116.96,182.54,116.68,182.54z"/>
		<path class="st0" d="M122.54,195.26l4.13-14.03c0.16-0.51,0.51-0.76,1.04-0.76c0.51,0,0.83,0.22,0.96,0.65l4.09,14.25
			c0.03,0.11,0.05,0.21,0.05,0.31c0,0.29-0.1,0.53-0.29,0.73c-0.2,0.2-0.42,0.3-0.67,0.3c-0.54,0-0.88-0.25-1.02-0.74l-0.81-2.78
			h-4.7l-0.89,2.98c-0.03,0.13-0.13,0.25-0.31,0.37c-0.18,0.12-0.38,0.18-0.59,0.18c-0.3,0-0.55-0.1-0.75-0.31
			c-0.2-0.2-0.29-0.45-0.29-0.74C122.48,195.51,122.5,195.39,122.54,195.26z M127.69,185.21l-1.76,5.87h3.47L127.69,185.21z"/>
		<path class="st0" d="M137.6,195.66v-15.2h7.25c0.84,0,1.56,0.31,2.17,0.92s0.91,1.34,0.91,2.19v1.17c0,0.85-0.3,1.58-0.9,2.19
			c-0.6,0.61-1.33,0.91-2.17,0.91h-1.31l4.19,7.2c0.13,0.21,0.2,0.42,0.2,0.63c0,0.28-0.11,0.51-0.32,0.71
			c-0.21,0.2-0.45,0.3-0.72,0.3c-0.41,0-0.72-0.18-0.93-0.55l-4.8-8.3h-1.48v7.82c0,0.29-0.1,0.53-0.31,0.73
			c-0.21,0.2-0.45,0.3-0.74,0.3c-0.28,0-0.53-0.1-0.73-0.3C137.7,196.19,137.6,195.94,137.6,195.66z M139.65,185.78h5.2
			c0.28,0,0.53-0.1,0.73-0.3c0.2-0.2,0.3-0.44,0.3-0.73v-1.2c0-0.28-0.1-0.53-0.3-0.73c-0.2-0.2-0.44-0.3-0.73-0.3h-5.2V185.78z"/>
	</g>
</g>
</svg>
