<?xml version="1.0" standalone="no"?>
<!DOCTYPE svg PUBLIC "-//W3C//DTD SVG 20010904//EN"
 "http://www.w3.org/TR/2001/REC-SVG-20010904/DTD/svg10.dtd">
<svg version="1.0" xmlns="http://www.w3.org/2000/svg"
 width="260.000000pt" height="260.000000pt" viewBox="0 0 260.000000 260.000000"
 preserveAspectRatio="xMidYMid meet">
<metadata>
Created by potrace 1.14, written by Peter Selinger 2001-2017
</metadata>
<g transform="translate(0.000000,260.000000) scale(0.100000,-0.100000)"
fill="#000000" stroke="none">
<path d="M1135 2593 c-282 -35 -576 -184 -796 -403 -240 -238 -339 -472 -339
-800 1 -271 63 -513 186 -720 91 -153 122 -177 299 -239 50 -18 119 -47 155
-65 80 -42 277 -109 385 -132 109 -22 303 -29 406 -15 83 12 293 61 287 67 -2
1 -55 -6 -118 -17 -166 -29 -451 -22 -630 16 -130 27 -319 86 -356 110 -29 19
-117 200 -148 305 -48 164 -60 252 -60 445 0 208 10 262 76 395 33 68 58 102
127 170 122 121 262 195 444 237 114 26 367 23 481 -5 184 -46 317 -122 436
-249 83 -89 139 -195 166 -318 25 -111 26 -431 1 -561 -21 -115 -69 -260 -113
-343 -18 -36 -32 -67 -29 -69 5 -5 114 30 215 70 85 33 115 58 172 142 131
190 200 418 214 696 19 380 -74 629 -331 886 -207 208 -458 341 -730 388 -82
15 -315 20 -400 9z m1126 -823 c46 -13 96 -47 123 -83 31 -42 28 -120 -6 -178
-27 -46 -117 -137 -156 -158 -19 -10 -22 -9 -27 16 -3 16 -13 57 -23 93 l-18
66 38 27 c71 50 40 107 -58 107 -50 0 -54 2 -94 50 l-41 49 28 7 c15 3 33 7
38 9 23 8 163 4 196 -5z m-1741 -11 c27 -6 50 -14 50 -17 -1 -4 -18 -26 -39
-50 -37 -42 -40 -44 -103 -45 -66 -2 -98 -16 -98 -44 0 -16 57 -77 78 -84 12
-4 11 -14 -1 -59 -9 -30 -18 -72 -22 -92 -3 -21 -10 -38 -14 -38 -23 0 -131
93 -165 143 -67 97 -60 182 19 242 66 51 182 68 295 44z"/>
<path d="M730 1302 c-16 -13 -21 -24 -16 -39 19 -60 176 -55 176 7 0 47 -114
69 -160 32z"/>
<path d="M1696 1301 c-39 -42 7 -85 82 -78 43 5 82 29 82 53 0 43 -130 62
-164 25z"/>
<path d="M950 1118 c-31 -111 -39 -304 -16 -400 34 -146 119 -268 221 -318 70
-34 198 -34 266 -2 98 48 178 160 214 297 30 112 21 299 -21 441 -23 82 -25
62 -2 -36 26 -114 28 -300 5 -390 -41 -155 -126 -264 -230 -295 -82 -24 -87
-23 -87 34 0 48 1 50 35 61 44 14 91 53 110 91 21 40 19 108 -5 146 -59 97
-251 97 -310 0 -52 -85 8 -209 115 -238 34 -10 35 -11 35 -61 l0 -51 -42 7
c-138 22 -243 141 -284 323 -20 93 -15 316 11 407 9 32 14 60 12 63 -3 2 -15
-33 -27 -79z"/>
<path d="M380 430 c0 -15 195 -223 267 -285 59 -51 86 -66 145 -83 169 -49
238 -57 523 -57 276 0 353 8 498 50 75 22 105 45 250 194 132 136 169 181 148
181 -20 0 -167 -58 -266 -105 -309 -147 -605 -196 -857 -144 -121 25 -295 84
-415 140 -180 84 -293 126 -293 109z"/>
<path d="M1745 300 c-13 -5 -14 -9 -5 -9 8 0 24 4 35 9 13 5 14 9 5 9 -8 0
-24 -4 -35 -9z"/>
</g>
</svg>
